<svg width="24" height="23" viewBox="0 0 24 23" fill="none" xmlns="http://www.w3.org/2000/svg">
<path d="M0 8.01655C0 13.0235 4.20047 17.9674 10.7529 22.1862C11.1023 22.4081 11.5362 22.6355 11.8371 22.6355C12.1359 22.6355 12.5719 22.4081 12.9309 22.1862C19.4737 17.9674 23.6742 13.0235 23.6742 8.01655C23.6742 3.7057 20.6979 0.714844 16.8651 0.714844C14.6381 0.714844 12.8909 1.73977 11.8371 3.28383C10.8026 1.74938 9.03398 0.714844 6.80906 0.714844C2.97632 0.714844 0 3.7057 0 8.01655ZM2.3592 8.00601C2.3592 5.03225 4.31366 3.03608 6.93538 3.03608C9.05202 3.03608 10.2459 4.31858 10.9812 5.43772C11.3039 5.91069 11.5284 6.0628 11.8371 6.0628C12.1458 6.0628 12.3448 5.89897 12.6888 5.43772C13.4826 4.33569 14.6318 3.03608 16.7388 3.03608C19.3605 3.03608 21.3129 5.03225 21.3129 8.00601C21.3129 12.1545 16.9901 16.7356 12.0621 20.0145C11.9576 20.0881 11.884 20.1403 11.8371 20.1403C11.7902 20.1403 11.7166 20.0881 11.6217 20.0145C6.68202 16.7356 2.3592 12.1545 2.3592 8.00601Z" fill="white"/>
</svg>
