<svg width="28" height="28" viewBox="0 0 28 28" fill="none" xmlns="http://www.w3.org/2000/svg">
<path fill-rule="evenodd" clip-rule="evenodd" d="M24.5 11.8417V20.961C24.5 23.5597 22.4107 25.6663 19.8333 25.6663H8.16667C5.58934 25.6663 3.5 23.5597 3.5 20.961V11.8417C3.5 10.4289 4.12959 9.09092 5.21484 8.19729L11.0482 3.39391C12.766 1.97937 15.234 1.97937 16.9518 3.39391L22.7852 8.19728C23.8704 9.09092 24.5 10.4289 24.5 11.8417ZM11.6667 20.1247C11.1834 20.1247 10.7917 20.5164 10.7917 20.9997C10.7917 21.4829 11.1834 21.8747 11.6667 21.8747H16.3333C16.8166 21.8747 17.2083 21.4829 17.2083 20.9997C17.2083 20.5164 16.8166 20.1247 16.3333 20.1247H11.6667Z" fill="#28303F"/>
</svg>
