<svg width="28" height="28" viewBox="0 0 28 28" fill="none" xmlns="http://www.w3.org/2000/svg">
<path fill-rule="evenodd" clip-rule="evenodd" d="M25.6667 13.9997C25.6667 17.5153 24.1117 20.6677 21.652 22.8066C19.6036 24.5879 16.9278 25.6663 14 25.6663C11.0723 25.6663 8.39647 24.5879 6.34807 22.8066C3.88836 20.6677 2.33337 17.5153 2.33337 13.9997C2.33337 7.55635 7.55672 2.33301 14 2.33301C20.4434 2.33301 25.6667 7.55635 25.6667 13.9997ZM14.0001 22.1663C16.0495 22.1663 17.9226 21.4114 19.3564 20.1645C19.5215 20.021 19.6808 19.8709 19.8338 19.7148C18.5727 17.6751 16.4306 16.333 14.0001 16.333C11.5696 16.333 9.42741 17.6751 8.16635 19.7148C8.31937 19.8709 8.47862 20.021 8.64369 20.1645C10.0776 21.4114 11.9507 22.1663 14.0001 22.1663ZM14 13.9997C15.933 13.9997 17.5 12.4327 17.5 10.4997C17.5 8.56668 15.933 6.99967 14 6.99967C12.067 6.99967 10.5 8.56668 10.5 10.4997C10.5 12.4327 12.067 13.9997 14 13.9997Z" fill="#28303F"/>
</svg>
