<svg width="28" height="28" viewBox="0 0 28 28" fill="none" xmlns="http://www.w3.org/2000/svg">
<path d="M21.6521 22.8066C20.4931 19.7067 17.5044 17.4997 14.0002 17.4997C10.4959 17.4997 7.50719 19.7067 6.34819 22.8066M21.6521 22.8066C24.1118 20.6677 25.6668 17.5153 25.6668 13.9997C25.6668 7.55635 20.4435 2.33301 14.0002 2.33301C7.55684 2.33301 2.3335 7.55635 2.3335 13.9997C2.3335 17.5153 3.88848 20.6677 6.34819 22.8066M21.6521 22.8066C19.6037 24.5879 16.9279 25.6663 14.0002 25.6663C11.0724 25.6663 8.39659 24.5879 6.34819 22.8066M17.5002 10.4997C17.5002 12.4327 15.9332 13.9997 14.0002 13.9997C12.0672 13.9997 10.5002 12.4327 10.5002 10.4997C10.5002 8.56668 12.0672 6.99967 14.0002 6.99967C15.9332 6.99967 17.5002 8.56668 17.5002 10.4997Z" stroke="#28303F" stroke-width="1.5" stroke-linejoin="round"/>
</svg>
